<svg xmlns="http://www.w3.org/2000/svg" viewBox="0 0 65.88 17.89"><defs><style>.cls-1{fill:#c9c8c8;}</style></defs><g id="Ebene_2" data-name="Ebene 2"><g id="Ebene_1-2" data-name="Ebene 1"><path class="cls-1" d="M9.28,9c0,3.19-1.75,5.26-4.31,5.26a3.57,3.57,0,0,1-3.23-1.83h0v5H0V3.94H1.61V5.65h0A3.66,3.66,0,0,1,4.93,3.76C7.52,3.76,9.28,5.83,9.28,9ZM7.54,9c0-2.29-1.13-3.76-2.94-3.76S1.69,6.76,1.69,9s1.17,3.76,2.91,3.76S7.54,11.32,7.54,9Z"/><path class="cls-1" d="M11.07,0h1.7V14.09h-1.7Z"/><path class="cls-1" d="M14.66,11.22c0-1.74,1.34-2.83,3.68-3l2.91-.16V7.24c0-1.24-.82-2-2.23-2a2.12,2.12,0,0,0-2.34,1.62H15c.12-1.76,1.62-3.11,4-3.11S23,5.05,23,7.07v7H21.34V12.34h0A3.7,3.7,0,0,1,18,14.27C16,14.27,14.66,13.05,14.66,11.22Zm6.59-1V9.4l-2.71.17c-1.37.09-2.15.69-2.15,1.65s.81,1.6,2,1.6A2.67,2.67,0,0,0,21.25,10.23Z"/><path class="cls-1" d="M25.22,17.83V16.41a3.58,3.58,0,0,0,.67.05c.95,0,1.47-.46,1.86-1.65L28,14.1,24.24,3.94h1.81l2.82,8.45h0l2.81-8.45H33.5l-4,10.86c-.87,2.38-1.71,3.09-3.54,3.09A4.44,4.44,0,0,1,25.22,17.83Z"/><path class="cls-1" d="M34.92,0h1.7V14.09h-1.7Z"/><path class="cls-1" d="M38.79,1.06a1.07,1.07,0,1,1,1.06,1.07A1.06,1.06,0,0,1,38.79,1.06ZM39,3.94h1.7V14.09H39Z"/><path class="cls-1" d="M46.55,3.76c2.23,0,3.71,1.31,3.78,3.11H48.71a1.94,1.94,0,0,0-2.16-1.72c-1.24,0-2.06.61-2.06,1.5,0,.7.52,1.18,1.65,1.46l1.61.39c2,.49,2.8,1.29,2.8,2.75,0,1.77-1.67,3-3.94,3s-3.87-1.2-4.06-3.11h1.7c.2,1.16,1,1.72,2.36,1.72s2.23-.59,2.23-1.5c0-.74-.4-1.16-1.56-1.44l-1.62-.39c-1.91-.46-2.84-1.35-2.84-2.81C42.82,5,44.36,3.76,46.55,3.76Z"/><path class="cls-1" d="M54.55,1.48V3.94h2V5.33h-2v6c0,.92.39,1.34,1.26,1.34a6.47,6.47,0,0,0,.7,0v1.42a5.83,5.83,0,0,1-1.07.08c-1.87,0-2.59-.76-2.59-2.71V5.33H51.34V3.94h1.51V1.48Z"/><path class="cls-1" d="M61.88,3.76c2.23,0,3.72,1.31,3.78,3.11H64a1.93,1.93,0,0,0-2.16-1.72c-1.24,0-2.06.61-2.06,1.5,0,.7.52,1.18,1.65,1.46l1.62.39c2,.49,2.79,1.29,2.79,2.75,0,1.77-1.67,3-3.94,3s-3.86-1.2-4.06-3.11h1.7c.21,1.16,1,1.72,2.36,1.72s2.23-.59,2.23-1.5c0-.74-.4-1.16-1.56-1.44L61,9.55c-1.92-.46-2.85-1.35-2.85-2.81C58.15,5,59.69,3.76,61.88,3.76Z"/></g></g></svg>