<?xml version="1.0" encoding="utf-8"?>
<!-- Generator: Adobe Illustrator 26.2.1, SVG Export Plug-In . SVG Version: 6.00 Build 0)  -->
<svg version="1.1" id="Layer_1" xmlns="http://www.w3.org/2000/svg" xmlns:xlink="http://www.w3.org/1999/xlink" x="0px" y="0px"	 viewBox="0 0 1000 1000" style="enable-background:new 0 0 1000 1000;" xml:space="preserve"><path d="M343.75,454.64c-2.68-2.98-6.08-4.83-10.2-5.58c-3.03-0.57-9.11-0.85-18.26-0.85h-12.26v35.66h13.89	c10,0,16.69-0.66,20.06-1.97c3.37-1.32,6.02-3.37,7.93-6.18c1.92-2.79,2.87-6.05,2.87-9.77	C347.78,461.38,346.44,457.61,343.75,454.64z M343.75,454.64c-2.68-2.98-6.08-4.83-10.2-5.58c-3.03-0.57-9.11-0.85-18.26-0.85	h-12.26v35.66h13.89c10,0,16.69-0.66,20.06-1.97c3.37-1.32,6.02-3.37,7.93-6.18c1.92-2.79,2.87-6.05,2.87-9.77	C347.78,461.38,346.44,457.61,343.75,454.64z M343.75,454.64c-2.68-2.98-6.08-4.83-10.2-5.58c-3.03-0.57-9.11-0.85-18.26-0.85	h-12.26v35.66h13.89c10,0,16.69-0.66,20.06-1.97c3.37-1.32,6.02-3.37,7.93-6.18c1.92-2.79,2.87-6.05,2.87-9.77C347.78,461.38,346.44,457.61,343.75,454.64z M343.75,454.64c-2.68-2.98-6.08-4.83-10.2-5.58c-3.03-0.57-9.11-0.85-18.26-0.85	h-12.26v35.66h13.89c10,0,16.69-0.66,20.06-1.97c3.37-1.32,6.02-3.37,7.93-6.18c1.92-2.79,2.87-6.05,2.87-9.77	C347.78,461.38,346.44,457.61,343.75,454.64z M343.75,454.64c-2.68-2.98-6.08-4.83-10.2-5.58c-3.03-0.57-9.11-0.85-18.26-0.85	h-12.26v35.66h13.89c10,0,16.69-0.66,20.06-1.97c3.37-1.32,6.02-3.37,7.93-6.18c1.92-2.79,2.87-6.05,2.87-9.77	C347.78,461.38,346.44,457.61,343.75,454.64z M343.75,454.64c-2.68-2.98-6.08-4.83-10.2-5.58c-3.03-0.57-9.11-0.85-18.26-0.85	h-12.26v35.66h13.89c10,0,16.69-0.66,20.06-1.97c3.37-1.32,6.02-3.37,7.93-6.18c1.92-2.79,2.87-6.05,2.87-9.77	C347.78,461.38,346.44,457.61,343.75,454.64z M0,0v1000h1000V0H0z M239.25,536.25c-4,6.29-9.66,10.96-16.98,14.02	c-7.31,3.05-16.43,4.58-27.34,4.58c-15.89,0-28.09-3.67-36.61-11.01c-8.52-7.35-13.6-18.05-15.26-32.11l24.69-2.4	c1.49,8.29,4.5,14.38,9.05,18.26c4.54,3.89,10.67,5.83,18.38,5.83c8.18,0,14.33-1.73,18.48-5.19c4.14-3.45,6.21-7.5,6.21-12.13	c0-2.97-0.87-5.5-2.61-7.58c-1.74-2.09-4.79-3.9-9.13-5.45c-2.97-1.03-9.75-2.85-20.32-5.48c-13.6-3.38-23.14-7.52-28.63-12.44	c-7.72-6.91-11.58-15.34-11.58-25.29c0-6.4,1.82-12.38,5.45-17.96c3.63-5.57,8.86-9.81,15.69-12.73c6.83-2.91,15.07-4.37,24.73-4.37	c15.77,0,27.65,3.46,35.62,10.38c7.97,6.91,12.16,16.14,12.56,27.69l-25.38,1.11c-1.08-6.46-3.41-11.1-6.98-13.93	c-3.58-2.83-8.93-4.24-16.08-4.24c-7.37,0-13.14,1.51-17.31,4.54c-2.69,1.94-4.03,4.54-4.03,7.8c0,2.97,1.25,5.52,3.77,7.63	c3.2,2.69,10.97,5.49,23.32,8.4c12.34,2.92,21.47,5.93,27.39,9.05c5.91,3.11,10.54,7.37,13.88,12.77c3.35,5.4,5.02,12.07,5.02,20.02	C245.25,523.22,243.25,529.96,239.25,536.25z M369.73,485.07c-2.8,5.26-6.36,9.39-10.67,12.39c-4.32,3-8.7,4.98-13.16,5.96	c-6.06,1.2-14.83,1.8-26.32,1.8h-16.55v47.4h-25.37V426.95h40.72c15.43,0,25.49,0.62,30.18,1.88c7.2,1.89,13.23,5.99,18.08,12.3	c4.86,6.32,7.29,14.48,7.29,24.48C373.93,473.32,372.53,479.81,369.73,485.07z M430.43,552.62h-25.38V426.95h25.38V552.62z	 M556.54,448.21h-37.21v104.41h-25.37V448.21h-37.3v-21.26h99.88V448.21z M608.58,552.62H583.2V426.95h25.38V552.62z M730.14,448.21	h-60.78v29.74h52.47v21.26h-52.47v53.41h-25.37V426.95h86.15V448.21z M820.42,499.9v52.72h-25.29v-52.89l-46.04-72.78h29.75	l29.58,49.72l28.97-49.72h29.24L820.42,499.9z M333.55,449.06c-3.03-0.57-9.11-0.85-18.26-0.85h-12.26v35.66h13.89	c10,0,16.69-0.66,20.06-1.97c3.37-1.32,6.02-3.37,7.93-6.18c1.92-2.79,2.87-6.05,2.87-9.77c0-4.57-1.34-8.34-4.03-11.31	C341.07,451.66,337.67,449.81,333.55,449.06z M343.75,454.64c-2.68-2.98-6.08-4.83-10.2-5.58c-3.03-0.57-9.11-0.85-18.26-0.85	h-12.26v35.66h13.89c10,0,16.69-0.66,20.06-1.97c3.37-1.32,6.02-3.37,7.93-6.18c1.92-2.79,2.87-6.05,2.87-9.77	C347.78,461.38,346.44,457.61,343.75,454.64z M343.75,454.64c-2.68-2.98-6.08-4.83-10.2-5.58c-3.03-0.57-9.11-0.85-18.26-0.85	h-12.26v35.66h13.89c10,0,16.69-0.66,20.06-1.97c3.37-1.32,6.02-3.37,7.93-6.18c1.92-2.79,2.87-6.05,2.87-9.77	C347.78,461.38,346.44,457.61,343.75,454.64z M343.75,454.64c-2.68-2.98-6.08-4.83-10.2-5.58c-3.03-0.57-9.11-0.85-18.26-0.85	h-12.26v35.66h13.89c10,0,16.69-0.66,20.06-1.97c3.37-1.32,6.02-3.37,7.93-6.18c1.92-2.79,2.87-6.05,2.87-9.77	C347.78,461.38,346.44,457.61,343.75,454.64z M343.75,454.64c-2.68-2.98-6.08-4.83-10.2-5.58c-3.03-0.57-9.11-0.85-18.26-0.85	h-12.26v35.66h13.89c10,0,16.69-0.66,20.06-1.97c3.37-1.32,6.02-3.37,7.93-6.18c1.92-2.79,2.87-6.05,2.87-9.77	C347.78,461.38,346.44,457.61,343.75,454.64z"/></svg>
