<svg xmlns="http://www.w3.org/2000/svg" viewBox="0 0 450 450"><defs><style>.cls-1{fill:#fff;}</style></defs><g id="Ebene_2" data-name="Ebene 2"><g id="Ebene_1-2" data-name="Ebene 1"><path class="cls-1" d="M225,30A195,195,0,0,1,362.89,362.89,195,195,0,0,1,87.11,87.11,193.72,193.72,0,0,1,225,30m0-30C100.74,0,0,100.74,0,225S100.74,450,225,450,450,349.26,450,225,349.26,0,225,0Z"/><path class="cls-1" d="M224.82,347.09a15,15,0,0,1-15-15V105a15,15,0,1,1,30,0V332.09A15,15,0,0,1,224.82,347.09Z"/><path class="cls-1" d="M224.82,360a14.93,14.93,0,0,1-9.49-3.38l-84-68.62a15,15,0,0,1,19-23.23l74.53,60.88,74.87-60.9a15,15,0,1,1,18.93,23.27l-84.36,68.62A15,15,0,0,1,224.82,360Z"/></g></g></svg>