<svg id="Layer_1" data-name="Layer 1" xmlns="http://www.w3.org/2000/svg" viewBox="0 0 161.26 133.07"><defs><style>.cls-1{fill:#231f20;}</style></defs><g id="Layer_2" data-name="Layer 2"><g id="Layer_1-2" data-name="Layer 1-2"><path class="cls-1" d="M119.2,10c18.6,0,32.06,17.32,32.06,29,0,13.12,0,24.45-35.16,53.14-19.56,16-30,24.23-35.47,28.44-5.44-4.21-15.91-12.49-35.47-28.44C10,63.46,10,52.13,10,39c0-11.68,13.46-29,32.06-29C60.1,10,72,29.13,72,29.28l8.6,14.42,8.58-14.43a50.2,50.2,0,0,1,8.36-9.8C104.46,13.18,111.74,10,119.2,10m0-10C95,0,80.63,24.16,80.63,24.16S66.22,0,42.06,0,0,21.94,0,39,2.11,69.93,38.84,99.89s41.79,33.18,41.79,33.18,5.07-3.22,41.79-33.18S161.26,56.08,161.26,39,143.4,0,119.2,0Z" transform="translate(0)"/></g></g></svg>