<?xml version="1.0" encoding="utf-8"?>
<!-- Generator: Adobe Illustrator 27.2.0, SVG Export Plug-In . SVG Version: 6.00 Build 0)  -->
<svg version="1.1" id="Layer_1" xmlns="http://www.w3.org/2000/svg" xmlns:xlink="http://www.w3.org/1999/xlink" x="0px" y="0px"
	 viewBox="0 0 142.7 295.8" style="enable-background:new 0 0 142.7 295.8;" xml:space="preserve">
<style type="text/css">
	.st0{fill:#FFFFFF;}
</style>
<g id="Layer_2_00000021091137278317244040000002353868342290965412_">
	<g id="Layer_1-2">
		<path class="st0" d="M15,295.8c-4,0-7.8-1.6-10.6-4.4c-5.9-5.9-5.9-15.4,0-21.2l98.4-98.4c0,0,0,0,0,0c13.2-13.2,13.2-34.6,0-47.8
			L4.4,25.6c-5.9-5.9-5.9-15.4,0-21.2s15.4-5.9,21.2,0l98.4,98.4c24.9,24.9,24.9,65.3,0,90.2l-98.4,98.4
			C22.8,294.2,19,295.8,15,295.8L15,295.8z"/>
	</g>
</g>
</svg>
