<svg xmlns="http://www.w3.org/2000/svg" viewBox="0 0 512.01 512"><defs><style>.cls-1{fill:#fff;}</style></defs><g id="Ebene_2" data-name="Ebene 2"><g id="Capa_1" data-name="Capa 1"><path class="cls-1" d="M505.75,475.58,360.15,330a201.67,201.67,0,0,0,45.18-127.31C405.33,90.92,314.41,0,202.67,0S0,90.92,0,202.67,90.92,405.33,202.67,405.33A201.67,201.67,0,0,0,330,360.15l145.6,145.6a21.33,21.33,0,0,0,30.17-30.17ZM202.67,362.67c-88.24,0-160-71.77-160-160s71.76-160,160-160,160,71.76,160,160S290.9,362.67,202.67,362.67Z"/></g></g></svg>