<svg xmlns="http://www.w3.org/2000/svg" viewBox="0 0 59.07 19.8"><defs><style>.cls-1{fill:#1d1d1b;}</style></defs><g id="Ebene_2" data-name="Ebene 2"><g id="Ebene_1-2" data-name="Ebene 1"><path class="cls-1" d="M2.32,11.42C2.53,12.94,4,13.86,6,13.86s3.34-1,3.34-2.37c0-1.2-.81-1.94-2.86-2.39L4.83,8.75C1.75,8.1.36,6.68.36,4.47.36,1.84,2.67,0,5.93,0s5.48,1.84,5.56,4.52H9.18C9,3,7.76,2.06,5.9,2.06s-3.11.88-3.11,2.28c0,1.12.78,1.86,2.77,2.29L7.24,7c3.21.68,4.53,2,4.53,4.2,0,2.89-2.27,4.71-5.85,4.71S.15,14.16,0,11.42Z"/><path class="cls-1" d="M24.17,10c0,3.54-1.86,5.79-4.67,5.79a3.82,3.82,0,0,1-3.52-2h-.05v5.54h-2.3V4.45h2.22V6.37h.05a3.87,3.87,0,0,1,3.56-2.11C22.3,4.26,24.17,6.5,24.17,10Zm-2.36,0c0-2.34-1.14-3.84-3-3.84S15.92,7.73,15.92,10s1.17,3.84,2.93,3.84S21.81,12.39,21.81,10Z"/><path class="cls-1" d="M25.83,1.32a1.33,1.33,0,1,1,1.33,1.32A1.31,1.31,0,0,1,25.83,1.32ZM26,4.45h2.3V15.63H26Z"/><path class="cls-1" d="M33.63,1.8V4.45h2.13V6.26H33.63v6.17c0,1,.43,1.41,1.36,1.41a4.1,4.1,0,0,0,.76-.06V15.6a5.93,5.93,0,0,1-1.28.11c-2.26,0-3.15-.86-3.15-3V6.26H29.7V4.45h1.62V1.8Z"/><path class="cls-1" d="M37.53,1.32A1.32,1.32,0,0,1,38.86,0a1.31,1.31,0,0,1,1.32,1.32,1.32,1.32,0,0,1-1.32,1.32A1.33,1.33,0,0,1,37.53,1.32Zm.18,3.13H40V15.63h-2.3Z"/><path class="cls-1" d="M43,6.26H41.49V4.47H43V3.37c0-2.17,1-3.19,3.3-3.19a7.47,7.47,0,0,1,1.29.11V2a5.18,5.18,0,0,0-.84-.07,1.3,1.3,0,0,0-1.47,1.49V4.47h2.26V6.26H45.34v9.37H43Z"/><path class="cls-1" d="M49.56,19.75V17.89a4.47,4.47,0,0,0,.74,0,1.86,1.86,0,0,0,2-1.59s.21-.68.21-.7l-4-11.19h2.49l2.83,9.1h0l2.83-9.1h2.43L54.88,16.22c-1,2.71-2.07,3.58-4.38,3.58A9.36,9.36,0,0,1,49.56,19.75Z"/></g></g></svg>