<?xml version="1.0" encoding="utf-8"?>
<!-- Generator: Adobe Illustrator 27.2.0, SVG Export Plug-In . SVG Version: 6.00 Build 0)  -->
<svg version="1.1" id="Layer_2_00000093872999913694078980000005990864369499841932_"
	 xmlns="http://www.w3.org/2000/svg" xmlns:xlink="http://www.w3.org/1999/xlink" x="0px" y="0px" viewBox="0 0 512 512"
	 style="enable-background:new 0 0 512 512;" xml:space="preserve">
<style type="text/css">
	.st0{fill:#FFFFFF;}
</style>
<path class="st0" d="M464.1,384.6L464.1,384.6L464.1,384.6L464.1,384.6l-0.1-0.1c-0.7-0.8-1.4-1.5-2.2-2.2l0,0
	C397.1,316.6,409,211,409,211c0-83-67.3-150.3-150.3-150.3S108.4,128,108.4,211c0,0,11.9,105.6-52.7,171.2l0,0
	c-0.8,0.7-1.5,1.4-2.2,2.2l-0.1,0.1l0,0l0,0l0,0c-5.9,6.4-9.5,15-9.5,24.4c0,20,16.2,36.1,36.1,36.1h357.4c20,0,36.1-16.2,36.1-36.1
	C473.6,399.6,469.9,391,464.1,384.6z M413.5,410.1H103.9c-11.2,0-17.5-8.2-12.4-15.3c59-71.1,53.4-168.5,51.9-185.3
	c0.4-30.2,12.4-58.5,33.8-80c21.8-21.8,50.7-33.8,81.5-33.8s59.8,12,81.5,33.8c21.4,21.4,33.4,49.7,33.8,80
	c-1.5,16.8-7.1,114.2,51.9,185.3C431.1,401.9,424.7,410.1,413.5,410.1z"/>
<ellipse class="st0" cx="258.7" cy="445.1" rx="52.1" ry="29.9"/>
<path class="st0" d="M80,154.7c-1.2,0-2.4-0.1-3.6-0.4c-9.5-2-15.5-11.3-13.5-20.7c0.7-3.1,17.2-76.9,106.3-114.4
	c8.9-3.7,19.2,0.4,22.9,9.3s-0.4,19.2-9.3,22.9c-72.4,30.5-85.5,88.8-85.7,89.4C95.4,149,88.1,154.7,80,154.7z"/>
<path class="st0" d="M437.4,154.7c1.2,0,2.4-0.1,3.6-0.4c9.5-2,15.5-11.3,13.5-20.7c-0.7-3.1-17.2-76.9-106.3-114.4
	c-8.9-3.7-19.2,0.4-22.9,9.3c-3.7,8.9,0.4,19.2,9.3,22.9c72.4,30.5,85.5,88.8,85.7,89.4C422,149,429.3,154.7,437.4,154.7z"/>
</svg>
