<?xml version="1.0" encoding="utf-8"?>
<!-- Generator: Adobe Illustrator 26.0.2, SVG Export Plug-In . SVG Version: 6.00 Build 0)  -->
<svg version="1.1" id="Layer_1" xmlns="http://www.w3.org/2000/svg" xmlns:xlink="http://www.w3.org/1999/xlink" x="0px" y="0px"
	 viewBox="0 0 161.3 133.1" style="enable-background:new 0 0 161.3 133.1;" xml:space="preserve">
<style type="text/css">
	.st0{fill:#FFFFFF;}
</style>
<g id="Layer_2_00000103954131383756291890000014271642540115179397_">
	<g id="Layer_1-2">
		<g id="Layer_2-2">
			<g id="Layer_1-2-2">
				<g>
					<path class="st0" d="M119.2,9c19.2,0,33.1,17.9,33.1,30c0,13.4,0,24.9-35.5,53.9c-20.3,16.6-30.8,24.9-36.1,28.9
						c-5.3-4.1-15.8-12.4-36.1-28.9C9,63.9,9,52.4,9,39C9,26.9,22.9,9,42.1,9c18.6,0,30.7,19.6,30.8,19.8l7.7,13l7.7-13
						c0,0,3.1-5,8.5-10C104,12.3,111.5,9,119.2,9 M119.2,0C95,0,80.6,24.2,80.6,24.2S66.2,0,42.1,0S0,21.9,0,39s2.1,30.9,38.8,60.9
						s41.8,33.2,41.8,33.2s5.1-3.2,41.8-33.2s38.8-43.8,38.8-60.9C161.3,21.9,143.4,0,119.2,0L119.2,0z"/>
				</g>
			</g>
		</g>
	</g>
</g>
</svg>
