<?xml version="1.0" encoding="utf-8"?>
<!-- Generator: Adobe Illustrator 26.3.1, SVG Export Plug-In . SVG Version: 6.00 Build 0)  -->
<svg version="1.1" id="Layer_1" xmlns="http://www.w3.org/2000/svg" xmlns:xlink="http://www.w3.org/1999/xlink" x="0px" y="0px"
	 viewBox="0 0 2000 2000" style="enable-background:new 0 0 2000 2000;" xml:space="preserve">
<style type="text/css">
	.st0{fill:#FFFFFF;}
	.st1{fill:#FFFFFF;stroke:#FFFFFF;stroke-width:40;stroke-linecap:round;stroke-linejoin:round;stroke-miterlimit:10;}
</style>
<g>
	<g>
		<g id="Ebene_2">
			<g id="Ebene_1-2">
				<g id="play">
					<path class="st0" d="M1618.4,669.9L1192.2,939c-14,9.5-33.1,5.7-42.4-8.3c-3.5-5.3-5.3-11.5-5.2-17.8V375.7
						c-0.1-16.9,13.4-30.6,30.4-30.8h0.1c6,0,11.7,1.6,16.7,4.9l426.5,267.8c14.4,9.4,18.4,28.5,9.1,42.8c0,0,0,0.1-0.1,0.1
						C1625.1,664.3,1622,667.4,1618.4,669.9z"/>
				</g>
			</g>
		</g>
		<path class="st0" d="M67.8,1067.8c-37.4,0-67.8-30.4-67.8-67.8c0-72.3,11.4-137.2,34-192.8c20.5-50.6,50.4-94,88.7-129.2
			C240,570.4,399.1,575.2,425.5,576.8h708.3c37.4,0,67.8,30.4,67.8,67.8c0,37.4-30.4,67.8-67.8,67.8H419.9l-2.4-0.2
			c-5.3-0.4-124.4-7.2-203.9,66.5c-51.8,47.9-78,122.4-78,221.4C135.6,1037.4,105.2,1067.8,67.8,1067.8z"/>
	</g>
	<g>
		<g id="Ebene_2_00000082326895515212007300000014045437143902310824_">
			<g id="Ebene_1-2_00000177454914070985242160000017723312051219110553_">
				<g id="play_00000039817508229932724890000008777175655793644990_">
					<path class="st0" d="M242.9,1330.1L669,1061c14-9.5,33.1-5.7,42.4,8.3c3.5,5.3,5.3,11.5,5.2,17.8v537.3
						c0.1,16.9-13.4,30.6-30.4,30.8h-0.1c-6,0-11.7-1.6-16.7-4.9l-426.5-267.8c-14.4-9.4-18.4-28.5-9.1-42.8c0,0,0-0.1,0.1-0.1
						C236.1,1335.7,239.2,1332.6,242.9,1330.1z"/>
				</g>
			</g>
		</g>
		<path class="st0" d="M1594.5,1423.8c-9.2,0-16.1-0.3-20-0.5H606.1c-37.4,0-67.8-30.4-67.8-67.8s30.4-67.8,67.8-67.8h973.9l2.4,0.2
			c5.3,0.3,124.4,7.2,203.9-66.5c51.8-47.9,78-122.4,78-221.4c0-37.4,30.4-67.8,67.8-67.8s67.8,30.4,67.8,67.8
			c0,72.3-11.4,137.2-34,192.8c-20.5,50.6-50.4,94-88.7,129.2C1777.4,1413.6,1647.2,1423.8,1594.5,1423.8z"/>
	</g>
</g>
<path class="st1" d="M2256.9,550.2"/>
<path class="st0" d="M1962.5,821.2c0,18.7-15.2,33.9-33.9,33.9c-18.7,0-33.9-15.2-33.9-33.9V523.8l-94.5,94.5
	c-13.2,13.2-34.7,13.2-48,0s-13.2-34.7,0-48L1904.7,418c9.7-9.7,24.3-12.6,37-7.3c12.7,5.2,20.9,17.6,20.9,31.3V821.2z"/>
</svg>
