<?xml version="1.0" encoding="utf-8"?>
<!-- Generator: Adobe Illustrator 26.3.1, SVG Export Plug-In . SVG Version: 6.00 Build 0)  -->
<svg version="1.1" id="Layer_1" xmlns="http://www.w3.org/2000/svg" xmlns:xlink="http://www.w3.org/1999/xlink" x="0px" y="0px"
	 viewBox="0 0 2000 2000" style="enable-background:new 0 0 2000 2000;" xml:space="preserve">
<style type="text/css">
</style>
<g>
	<g>
		<g id="Ebene_2_00000082326895515212007300000014045437143902310824_">
			<g id="Ebene_1-2_00000177454914070985242160000017723312051219110553_">
				<g id="play_00000039817508229932724890000008777175655793644990_">
					<path d="M242.9,1330.1L669,1061c14-9.5,33.1-5.7,42.4,8.3c3.5,5.3,5.3,11.5,5.2,17.8v537.3
						c0.1,16.9-13.4,30.6-30.4,30.8h-0.1c-6,0-11.7-1.6-16.7-4.9l-426.5-267.8c-14.4-9.4-18.4-28.5-9.1-42.8c0,0,0-0.1,0.1-0.1
						C236.1,1335.7,239.2,1332.6,242.9,1330.1z"/>
				</g>
			</g>
		</g>
		<path  d="M1594.5,1423.8c-9.2,0-16.1-0.3-20-0.5H606.1c-37.4,0-67.8-30.4-67.8-67.8s30.4-67.8,67.8-67.8h973.9l2.4,0.2
			c5.3,0.3,124.4,7.2,203.9-66.5c51.8-47.9,78-122.4,78-221.4c0-37.4,30.4-67.8,67.8-67.8s67.8,30.4,67.8,67.8
			c0,72.3-11.4,137.2-34,192.8c-20.5,50.6-50.4,94-88.7,129.2C1777.4,1413.6,1647.2,1423.8,1594.5,1423.8z"/>
	</g>
	<g>
		<g>
			<g id="Ebene_2_00000023251806400713790990000013977758646331193731_">
				<g id="Ebene_1-2_00000067920358905188587070000005768741747197560227_">
					<g id="play_00000057863751653433333010000010987047161095972770_">
						<path  d="M1757.1,669.9L1331,939c-14,9.5-33.1,5.7-42.4-8.3c-3.5-5.3-5.3-11.5-5.2-17.8V375.7
							c-0.1-16.9,13.4-30.6,30.4-30.8h0.1c6,0,11.7,1.6,16.7,4.9l426.5,267.8c14.4,9.4,18.4,28.5,9.1,42.8c0,0,0,0.1-0.1,0.1
							C1763.9,664.3,1760.8,667.4,1757.1,669.9z"/>
					</g>
				</g>
			</g>
			<path  d="M405.5,576.2c9.2,0,16.1,0.3,20,0.5h968.3c37.4,0,67.8,30.4,67.8,67.8c0,37.4-30.4,67.8-67.8,67.8H419.9
				l-2.4-0.2c-5.3-0.3-124.4-7.2-203.9,66.5c-51.8,47.9-78,122.4-78,221.4c0,37.4-30.4,67.8-67.8,67.8S0,1037.4,0,1000
				c0-72.3,11.4-137.2,34-192.8c20.5-50.6,50.4-94,88.7-129.2C222.6,586.4,352.8,576.2,405.5,576.2z"/>
		</g>
	</g>
</g>
<path d="M2256.9,550.2"/>
</svg>
