<?xml version="1.0" encoding="utf-8"?>
<!-- Generator: Adobe Illustrator 26.3.1, SVG Export Plug-In . SVG Version: 6.00 Build 0)  -->
<svg version="1.1" id="Layer_1" xmlns="http://www.w3.org/2000/svg" xmlns:xlink="http://www.w3.org/1999/xlink" x="0px" y="0px"
	 viewBox="0 0 2000 2000" style="enable-background:new 0 0 2000 2000;" xml:space="preserve">
<style type="text/css">
</style>
<g>
	<g>
		<g>
			<g id="Ebene_2_00000023251806400713790990000013977758646331193731_">
				<g id="Ebene_1-2_00000067920358905188587070000005768741747197560227_">
					<g id="play_00000057863751653433333010000010987047161095972770_">
						<path d="M1982.9,669.9L1556.8,939c-14,9.5-33.1,5.7-42.4-8.3c-3.5-5.3-5.3-11.5-5.2-17.8V375.7
							c-0.1-16.9,13.4-30.6,30.4-30.8h0.1c6,0,11.7,1.6,16.7,4.9l426.5,267.8c14.4,9.4,18.4,28.5,9.1,42.8c0,0,0,0.1-0.1,0.1
							C1989.7,664.3,1986.5,667.4,1982.9,669.9z"/>
					</g>
				</g>
			</g>
		</g>
	</g>
	<g>
		<g>
			<g id="Ebene_2_00000019655229851121365600000015504312651172974225_">
				<g id="Ebene_1-2_00000078004285686392654440000012788216591127446166_">
					<g id="play_00000038388945097474595000000016652953244742123395_">
						<path d="M1982.9,1329.8l-426.1-269.1c-14-9.5-33.1-5.7-42.4,8.3c-3.5,5.3-5.3,11.5-5.2,17.8V1624
							c-0.1,16.9,13.4,30.6,30.4,30.8h0.1c6,0,11.7-1.6,16.7-4.9l426.5-267.8c14.4-9.4,18.4-28.5,9.1-42.8c0,0,0-0.1-0.1-0.1
							C1989.7,1335.3,1986.5,1332.2,1982.9,1329.8z"/>
					</g>
				</g>
			</g>
		</g>
	</g>
</g>
<path d="M2256.9,550.2"/>
<path d="M556.8,1405.1H60.2c-27.6,0-50-22.4-50-50s22.4-50,50-50h496.6c64.5,0,118.8-29.3,170.9-92.1
	c51.1-61.6,94.3-148.8,136.1-233.1c44.8-90.4,91.1-183.9,150.8-255.5c34.1-40.9,69.5-71.3,108.2-92.8
	c44.3-24.6,92.9-37.1,144.5-37.1H1586c27.6,0,50,22.4,50,50s-22.4,50-50,50h-318.7c-66.6,0-122.5,29.8-175.9,93.9
	c-52.2,62.6-95.8,150.7-138,235.9c-44.3,89.4-90.1,181.9-148.7,252.5c-33.5,40.4-68.3,70.4-106.2,91.6
	C655.1,1392.7,607.4,1405.1,556.8,1405.1z"/>
<path  d="M1584.3,1355.1"/>
<path  d="M1584.3,1355.1"/>
<path  d="M556.8,594.6H60.2c-27.6,0-50,22.4-50,50s22.4,50,50,50h496.6c64.5,0,118.8,29.3,170.9,92.1
	c51.1,61.6,94.3,148.8,136.1,233.1c44.8,90.4,91.1,183.9,150.8,255.5c34.1,40.9,69.5,71.3,108.2,92.8
	c44.3,24.6,92.9,37.1,144.5,37.1H1586c27.6,0,50-22.4,50-50s-22.4-50-50-50h-318.7c-66.6,0-122.5-29.8-175.9-93.9
	c-52.2-62.6-95.8-150.7-138-235.9c-44.3-89.4-90.1-181.9-148.7-252.5c-33.5-40.4-68.3-70.4-106.2-91.6
	C655.1,606.9,607.4,594.6,556.8,594.6z"/>
</svg>
